<svg width="21" height="21" viewBox="0 0 21 21" fill="none" xmlns="http://www.w3.org/2000/svg">
<path d="M10.4528 0.0319824C16.1942 0.0319824 20.8679 4.51782 20.8679 10.032C20.8679 15.5445 16.1942 20.032 10.4528 20.032C4.70979 20.032 0.0377502 15.5445 0.0377502 10.032C0.0377502 4.51782 4.70979 0.0319824 10.4528 0.0319824Z" fill="#C2185B"/>
<path d="M16.1482 3.43285V3.43202C14.0313 1.74535 11.2696 1.11535 8.62848 1.64035C9.71165 3.11452 10.6959 4.64869 11.5612 6.23952C13.1998 5.50619 14.7413 4.56035 16.1482 3.43285Z" fill="#EC407A"/>
<path d="M13.2953 9.89116V9.89033C15.2716 9.50116 17.3277 9.4645 19.3656 9.7895C19.3057 7.747 18.5055 5.88366 17.2079 4.44116C15.676 5.68033 13.9923 6.707 12.2035 7.5095C12.5958 8.292 12.9586 9.08533 13.2953 9.89116Z" fill="#EC407A"/>
<path d="M10.1734 6.77945C9.27857 5.15028 8.2657 3.57861 7.13479 2.07861C4.45464 3.11028 2.4237 5.35028 1.76147 8.09945C4.6508 8.21778 7.51061 7.75611 10.1734 6.77945Z" fill="#EC407A"/>
<path d="M11.8459 10.2462C11.5352 9.51206 11.1993 8.78873 10.84 8.07373C7.92373 9.16456 4.85128 9.69123 1.5523 9.5204C1.41603 11.8621 2.20584 13.9329 3.62924 15.5537C5.77301 12.9979 8.65539 11.1662 11.8459 10.2462Z" fill="#EC407A"/>
<path d="M13.8421 11.2427V11.2436C14.5512 13.1436 15.1075 15.0969 15.5163 17.0877C17.5282 15.7552 18.9325 13.6502 19.2849 11.2194C17.4605 10.9094 15.617 10.9227 13.8421 11.2427Z" fill="#EC407A"/>
<path d="M4.68463 16.5695H4.6855C7.32833 18.722 10.9997 19.2103 14.152 17.8253C13.7432 15.6911 13.1478 13.6028 12.3797 11.5745C9.38097 12.4161 6.67131 14.1445 4.68463 16.5695Z" fill="#EC407A"/>
</svg>
