<svg width="22" height="21" viewBox="0 0 22 21" fill="none" xmlns="http://www.w3.org/2000/svg">
<path d="M2.14379 1.39281C0.506884 3.02531 0.841903 4.75948 0.841903 10.0278C0.841903 14.4028 0.0468841 18.7886 4.20771 19.8211C5.507 20.142 17.0191 20.142 18.3167 19.8195C20.0491 19.3903 21.4586 18.0411 21.6513 15.6886C21.6782 15.3603 21.6782 4.70115 21.6504 4.36615C21.4456 1.86031 19.839 0.416147 17.7222 0.123647C17.237 0.0561471 17.1398 0.0361471 14.6506 0.0319804C5.82119 0.0361471 3.88571 -0.341353 2.14379 1.39281Z" fill="url(#paint0_linear)"/>
<path d="M11.2553 2.64775C8.10383 2.64775 5.11123 2.37859 3.96817 5.19525C3.49602 6.35859 3.56458 7.86942 3.56458 10.0328C3.56458 11.9311 3.50123 13.7153 3.96817 14.8694C5.10862 17.6878 8.12553 17.4178 11.2535 17.4178C14.2713 17.4178 17.3828 17.7194 18.5398 14.8694C19.0128 13.6944 18.9433 12.2061 18.9433 10.0328C18.9433 7.14775 19.1091 5.28525 17.6519 3.88692C16.1764 2.47025 14.181 2.64775 11.2518 2.64775H11.2553ZM10.5661 3.97859C17.1398 3.96859 17.9765 3.26692 17.5147 13.0144C17.3507 16.4619 14.6167 16.0836 11.2561 16.0836C5.12858 16.0836 4.9524 15.9153 4.9524 10.0294C4.9524 4.07525 5.43843 3.98192 10.5661 3.97692V3.97859ZM15.3605 5.20442C14.8511 5.20442 14.4379 5.60109 14.4379 6.09025C14.4379 6.57942 14.8511 6.97609 15.3605 6.97609C15.87 6.97609 16.2832 6.57942 16.2832 6.09025C16.2832 5.60109 15.87 5.20442 15.3605 5.20442ZM11.2553 6.24025C9.07417 6.24025 7.30621 7.93859 7.30621 10.0328C7.30621 12.1269 9.07417 13.8244 11.2553 13.8244C13.4364 13.8244 15.2035 12.1269 15.2035 10.0328C15.2035 7.93859 13.4364 6.24025 11.2553 6.24025ZM11.2553 7.57109C14.6445 7.57109 14.6488 12.4944 11.2553 12.4944C7.86689 12.4944 7.86168 7.57109 11.2553 7.57109Z" fill="white"/>
<defs>
<linearGradient id="paint0_linear" x1="2.18373" y1="18.7546" x2="20.8652" y2="1.91482" gradientUnits="userSpaceOnUse">
<stop stop-color="#FFDD55"/>
<stop offset="0.5" stop-color="#FF543E"/>
<stop offset="1" stop-color="#C837AB"/>
</linearGradient>
</defs>
</svg>
