<svg width="22" height="21" viewBox="0 0 22 21" fill="none" xmlns="http://www.w3.org/2000/svg">
<path d="M10.9396 20.032C16.6917 20.032 21.3547 15.5548 21.3547 10.032C21.3547 4.50913 16.6917 0.0319824 10.9396 0.0319824C5.18753 0.0319824 0.524536 4.50913 0.524536 10.032C0.524536 15.5548 5.18753 20.032 10.9396 20.032Z" fill="#039BE5"/>
<path d="M5.29029 9.81524L15.3322 6.09774C15.7983 5.93608 16.2053 6.20691 16.0543 6.88358L16.0552 6.88274L14.3453 14.6169C14.2186 15.1652 13.8793 15.2986 13.4045 15.0402L10.8007 13.1977L9.54485 14.3594C9.40598 14.4927 9.28882 14.6052 9.01976 14.6052L9.20463 12.0611L14.0303 7.87524C14.2403 7.69774 13.9834 7.59774 13.7066 7.77441L7.74304 11.3794L5.17225 10.6094C4.61417 10.4394 4.60202 10.0736 5.29029 9.81524Z" fill="white"/>
</svg>
