<svg width="22" height="17" viewBox="0 0 22 17" fill="none" xmlns="http://www.w3.org/2000/svg">
<path d="M18.9735 4.5825C18.9735 4.40167 18.9665 4.22583 18.9578 4.0525C19.8049 3.475 20.5175 2.75417 21.0981 1.92417V1.92333C20.3231 2.24917 19.4985 2.46583 18.6376 2.57083C19.5229 2.06333 20.199 1.26583 20.5166 0.305C19.6912 0.7775 18.7799 1.11083 17.8087 1.2975C17.025 0.495833 15.9079 0 14.6894 0C12.3252 0 10.4218 1.8425 10.4218 4.10083C10.4218 4.42583 10.4504 4.73833 10.5207 5.03583C6.97092 4.86917 3.82904 3.23583 1.71825 0.746667C1.35025 1.36083 1.13327 2.06333 1.13327 2.81917C1.13327 4.23917 1.89443 5.4975 3.03055 6.22667C2.34402 6.21417 1.67138 6.0225 1.10115 5.72167V5.76667C1.10115 7.75917 2.58096 9.41417 4.52251 9.79583C3.86983 9.9675 3.06613 9.96083 2.59485 9.86083C3.14772 11.4842 4.71866 12.6783 6.5847 12.7175C5.13179 13.8083 3.28659 14.4658 1.28949 14.4658C0.939718 14.4658 0.603831 14.4508 0.267944 14.41C2.16002 15.5808 4.401 16.25 6.81904 16.25C14.6772 16.25 18.9735 10 18.9735 4.5825Z" fill="#55ACEE"/>
</svg>
