<svg width="22" height="21" viewBox="0 0 22 21" fill="none" xmlns="http://www.w3.org/2000/svg">
<path d="M18.5645 2.90615C16.5856 1.06948 13.9819 0.0319824 11.2089 0.0319824C3.24998 0.0319824 -1.74753 8.31115 2.2267 14.897L0.7547 20.032L6.253 18.6553C8.64847 19.8978 10.6109 19.7878 11.2141 19.8611C20.4427 19.8611 25.0366 9.14115 18.5515 2.93865L18.5645 2.90615Z" fill="#ECEFF1"/>
<path d="M11.228 18.1577L11.2228 18.1569H11.2089C8.44714 18.1569 6.68265 16.9011 6.50907 16.8286L3.25435 17.6411L4.12661 14.6036L3.91918 14.2911C3.05993 12.9777 2.6034 11.4652 2.6034 9.90775C2.6034 2.58025 11.9293 -1.08392 17.326 4.09525C22.7097 9.22025 18.9299 18.1577 11.228 18.1577Z" fill="#4CAF50"/>
<path d="M15.9699 11.6608L15.9621 11.7233C15.7009 11.5983 14.4285 11.0008 14.1915 10.9183C13.6595 10.7292 13.8097 10.8883 12.7881 12.0117C12.6362 12.1742 12.4852 12.1867 12.2274 12.0742C11.967 11.9492 11.1312 11.6867 10.1418 10.8367C9.37108 10.1742 8.8538 9.36167 8.70105 9.11167C8.44675 8.69001 8.97878 8.63001 9.46309 7.75001C9.54988 7.57501 9.50561 7.43751 9.44139 7.31334C9.37629 7.18834 8.85814 5.96334 8.64116 5.47501C8.43286 4.98834 8.21848 5.05001 8.05791 5.05001C7.55799 5.00834 7.19259 5.01501 6.87059 5.33667C5.46976 6.81501 5.82301 8.34001 7.02161 9.96167C9.37716 12.9217 10.6322 13.4667 12.927 14.2233C13.5467 14.4125 14.1117 14.3858 14.5587 14.3242C15.0569 14.2483 16.0923 13.7233 16.3084 13.1358C16.5297 12.5483 16.5297 12.0608 16.4646 11.9483C16.4004 11.8358 16.2303 11.7733 15.9699 11.6608Z" fill="#FAFAFA"/>
</svg>
