<svg width="21" height="15" viewBox="0 0 21 15" fill="none" xmlns="http://www.w3.org/2000/svg">
<path d="M0.477762 11.976C0.903045 13.4243 2.20406 13.6893 2.29086 13.7401C4.43203 14.3001 16.4337 14.3018 18.607 13.7401C20.0955 13.3268 20.3689 12.0593 20.4201 11.976C20.9868 9.08097 21.0241 5.30681 20.394 2.02181L20.4201 2.18514C19.9948 0.736807 18.6938 0.471807 18.607 0.420974C16.4944 -0.12986 4.46154 -0.150693 2.29086 0.420974C0.802366 0.83514 0.52897 2.10181 0.477762 2.18514C-0.128917 5.22764 -0.159295 8.71847 0.477762 11.976ZM8.36373 10.1235V4.04597L13.8021 7.08931L8.36373 10.1235Z" fill="#E53935"/>
</svg>
